<?xml version="1.0" encoding="UTF-8"?>
<svg id="PE_CONVERSATION" xmlns="http://www.w3.org/2000/svg" xmlns:xlink="http://www.w3.org/1999/xlink" version="1.1" viewBox="0 0 34.4 34.4">
  <!-- Generator: Adobe Illustrator 30.5.1, SVG Export Plug-In . SVG Version: 2.1.4 Build 3)  -->
  <defs>
    <style>
      .st0 {
        fill: #010101;
      }

      .st1 {
        fill: url(#radial-gradient);
        stroke: #c4c5c6;
        stroke-width: .8px;
      }

      .st1, .st2, .st3, .st4, .st5 {
        stroke-miterlimit: 10;
      }

      .st6 {
        fill: #2d2724;
      }

      .st2 {
        fill: none;
        stroke-linecap: round;
      }

      .st2, .st3, .st4, .st5 {
        stroke: #010101;
        stroke-width: .1px;
      }

      .st3 {
        fill: url(#linear-gradient);
      }

      .st4 {
        fill: url(#linear-gradient1);
      }

      .st5 {
        fill: url(#linear-gradient2);
      }
    </style>
    <radialGradient id="radial-gradient" cx="17.2" cy="17.2" fx="17.2" fy="17.2" r="16.8" gradientUnits="userSpaceOnUse">
      <stop offset="0" stop-color="#ded27f"/>
      <stop offset=".3" stop-color="#dbcf7e"/>
      <stop offset=".5" stop-color="#d4c97b"/>
      <stop offset=".6" stop-color="#c7bd77"/>
      <stop offset=".7" stop-color="#b4ac71"/>
      <stop offset=".8" stop-color="#9c9669"/>
      <stop offset=".9" stop-color="#7f7b60"/>
      <stop offset="1" stop-color="#5c5b55"/>
      <stop offset="1" stop-color="#525252"/>
    </radialGradient>
    <linearGradient id="linear-gradient" x1="16.5" y1="16.2" x2="16.5" y2="19.8" gradientUnits="userSpaceOnUse">
      <stop offset=".1" stop-color="#efb597"/>
      <stop offset=".9" stop-color="#b32025"/>
    </linearGradient>
    <linearGradient id="linear-gradient1" x1="18.9" y1="5.4" x2="18.9" y2="15.7" gradientUnits="userSpaceOnUse">
      <stop offset=".1" stop-color="#b92426"/>
      <stop offset=".2" stop-color="#bb292a"/>
      <stop offset=".2" stop-color="#c13a37"/>
      <stop offset=".3" stop-color="#cb554c"/>
      <stop offset=".4" stop-color="#d97b69"/>
      <stop offset=".5" stop-color="#ebab8f"/>
      <stop offset=".5" stop-color="#efb597"/>
      <stop offset=".6" stop-color="#edb295"/>
      <stop offset=".7" stop-color="#eaaa8e"/>
      <stop offset=".8" stop-color="#e49b83"/>
      <stop offset=".8" stop-color="#dc8774"/>
      <stop offset=".9" stop-color="#d26d5f"/>
      <stop offset=".9" stop-color="#c44c47"/>
      <stop offset=".9" stop-color="#b5272a"/>
      <stop offset=".9" stop-color="#b32025"/>
    </linearGradient>
    <linearGradient id="linear-gradient2" x1="21.3" y1="16.2" x2="21.3" y2="19.7" xlink:href="#linear-gradient"/>
  </defs>
  <circle id="_x3C_active_x3E_" class="st1" cx="17.2" cy="17.2" r="16.8"/>
  <path class="st6" d="M21.1,24c1.3,0,2.7-.4,5.2-1.3.5-.2.9-.2,1.2-.2.2,0,.3.1.3.3,0,0,0,.2,0,.2h0s0,0,0,0c-.3,0-.8.3-1.4.6-1.5.7-2.8,1.3-3.6,1.5-.7.2-1.4.4-2.1.4.4-.3.8-.7.8-1.1,0-.2,0-.3-.3-.5ZM19.8,23.3h.7c1.3,0,2.5-.2,4.3-.8.8-.3,1.2-.4,1.3-.5,0,0-.1-.2-.2-.2-.4-.2-1,0-1.9.2-1.9.4-2.5.5-3.9.5-.8,0-1.9,0-1.9,0,.3.2.8.5,1.1.6l.5.2ZM28.3,23.6c-.3-.1-.7.7-1.8,1.2-2.6,1.2-4,1.7-5.6,1.9-2.2.3-4.7-.1-6.8-1.2-.7-.4-1.8-1.2-2.1-1.6-.3-.5-.2-.6,0-.7,0,0,.2,0,.5.4.2.2.5.4.7.5.5.3,1.8.9,2.3,1.1,1.9.6,3.2.7,4.1.3.4-.2.6-.8.6-1.1,0,0,0-.1,0-.2,0,0-.2-.1-.6-.3-1.1-.5-1.6-.8-2.4-1.3-.9-.6-4.4-3.8-5.2-4.3-1.4-.9-2.5-1.2-4-1.1-2.5.2-4.2,1.8-4.2,2,0,.2,1.2,3.1,2.1,4.3,1.4,2,4.5,6.3,10.9,6.3s10.6-3.9,11.7-5.3c.3-.3.2-.9-.1-1Z"/>
  <path class="st3" d="M18.7,16.2h-4.4v.5c0,.3,0,1.4,0,2v.6c0,.2.2.4.4.4h1.6c1,0,2,0,2.1,0h.2v-1.5c0-.9,0-1.9,0-2h0Z"/>
  <path class="st0" d="M11.7,8.8c.3.6,1.3,1.7,1.5,1.8.1,0,.3.2.5.2,0,0,0-.3-.1-.4-.6-.7-1.4-1.3-1.9-1.6Z"/>
  <path class="st0" d="M27.4,12.8c-.7,0-2,.8-2.3,1,0,0-.3.3-.3.4,0,.1.3,0,.4,0,.9-.4,1.7-1,2.2-1.4Z"/>
  <path class="st4" d="M23.1,12.1h-1.9c-.4,0-.8,0-1.1,0,0,0,.1,0,.2,0,1-.6,1.6-1,2-1.6.3-.3.6-.8.7-1.2.3-.7.1-1.7-.3-2-.5-.4-1.1-.4-2,0,0,0,0,0,0,0,0-.3-.2-.6-.3-.8-.1-.2-.5-.6-.7-.7-.4-.2-1-.4-1.4-.3-.8.1-1.3.9-1.4,1.9v.2s0,0,0,0c-.6-.2-1.3,0-1.6.7,0,.2-.2.7,0,1.3.2.4.5.8.8,1.1.3.3,1.2,1,2,1.5h-3.3c-.2,0-.4.2-.4.4v1.3c0,.9,0,1.7,0,2,.3,0,1.3,0,2.3,0h2s0-3.5,0-3.5c0-.1,0-.2-.1-.3-.1,0-.3-.2-.4-.3-1-.6-1.9-1.4-2.2-1.9-.3-.4-.4-.6-.4-.9,0-.3,0-.4.1-.6.2-.2.4-.4.6-.4s.3,0,.4.1q.2,0,.2.6c0,.4.3,1.1.5,1.7.1.3.6,1.1,1.2,1.1.3,0,.5-.3.2-1.3-.3-.7-.8-1.7-1.3-2.1-.1-.1-.2-.3-.2-.3,0,0,0-.7.1-1,0-.1.1-.3.2-.4.3-.4.7-.6,1.3-.5.3,0,.6.2.8.4.2.2.4.5.5.9v.3c0,0-.1.2-.1.2-.5.5-.8,1.2-.8,1.7,0,.4,0,.6.2.8.1.1.2.2.4.2s.3,0,.4-.2c.4-.4.6-1.1.6-1.9v-.5s.2,0,.2,0c.5-.3.9-.4,1.2-.2.2,0,.4.3.4.5.1.4,0,.8-.2,1.4-.4.9-1,1.4-2.6,2.3l-.5.3c0,0-.1.1-.1.3,0,.2,0,1,0,1.6v1.9h4.3v-3.3c0-.2-.2-.4-.4-.4ZM18.4,10.4c0,.1.1.4,0,.4-.2,0-.3-.2-.4-.3-.2-.2-.8-1.5-.9-2.3.4.5.9,1.3,1.3,2.1ZM20,9.6c0,0-.3.4-.4.3-.1,0-.1-.3-.1-.4,0-.4.4-1.3.9-1.8,0,.5,0,1.1-.4,1.8Z"/>
  <path class="st0" d="M25.7,9c0,0,0-.1,0-.2-.2.2-.5.4-.8.6-.6.6-1,1.2-1,1.5,0,0,0,0,0,0,.3-.1.8-.6,1.1-1.1h0c.1-.2.4-.6.5-.9Z"/>
  <path class="st0" d="M13,14.4c0,0,.1,0,.2,0-.2-.2-.5-.4-.8-.6-.7-.4-1.3-.6-1.6-.5,0,0,0,0,0,0,.2.2.8.6,1.3.8h0c.2,0,.6.2.9.2Z"/>
  <path class="st5" d="M19.3,16.2s0,0-.1,0c0,.2,0,1.1,0,2.6v.9s2,0,2,0c.7,0,1.6,0,1.9,0,.2,0,.3-.2.3-.3,0-.3,0-.7,0-1.3v-1.8s-2.1,0-2.1,0c-.9,0-2,0-2.1,0Z"/>
  <line class="st2" x1="14.4" y1="16" x2="23.3" y2="16"/>
  <line class="st2" x1="18.9" y1="12.3" x2="19" y2="19.6"/>
</svg>