<?xml version="1.0" encoding="UTF-8"?>
<svg id="PE_CONVERSATION" xmlns="http://www.w3.org/2000/svg" xmlns:xlink="http://www.w3.org/1999/xlink" version="1.1" viewBox="0 0 34.4 34.4">
  <!-- Generator: Adobe Illustrator 30.5.1, SVG Export Plug-In . SVG Version: 2.1.4 Build 3)  -->
  <defs>
    <style>
      .st0 {
        fill: url(#linear-gradient);
        stroke: #443b18;
      }

      .st0, .st1, .st2, .st3, .st4, .st5, .st6 {
        stroke-miterlimit: 10;
      }

      .st0, .st2, .st3, .st4, .st5 {
        stroke-width: .5px;
      }

      .st7, .st3 {
        fill: #231f20;
      }

      .st1 {
        fill: url(#radial-gradient);
        stroke: #a7a9ac;
        stroke-width: .8px;
      }

      .st2, .st3 {
        stroke-linecap: round;
      }

      .st2, .st4, .st5 {
        fill: none;
      }

      .st2, .st6 {
        stroke: #231f20;
      }

      .st3 {
        stroke: #ddb2a4;
      }

      .st4 {
        stroke: #453432;
      }

      .st5 {
        stroke: #6d4e49;
      }

      .st6 {
        fill: #8ed2c8;
        stroke-width: .2px;
      }
    </style>
    <radialGradient id="radial-gradient" cx="17.2" cy="17.2" fx="17.2" fy="17.2" r="16.8" gradientUnits="userSpaceOnUse">
      <stop offset="0" stop-color="#e3e3e3"/>
      <stop offset="1" stop-color="#a3a3a3"/>
    </radialGradient>
    <linearGradient id="linear-gradient" x1="16.8" y1="5.7" x2="16.8" y2="29.1" gradientUnits="userSpaceOnUse">
      <stop offset=".1" stop-color="#efb597"/>
      <stop offset=".9" stop-color="#b32025"/>
    </linearGradient>
  </defs>
  <circle class="st1" cx="17.2" cy="17.2" r="16.8"/>
  <g>
    <g id="_x3C_box_x3E_">
      <polygon class="st0" points="6.4 10.4 17.2 5.7 27.3 10.4 27.3 23 17.2 29.1 6.4 23 6.4 10.4"/>
      <polyline class="st5" points="26.8 10.6 17.2 15.2 6.8 10.5"/>
      <line class="st4" x1="17.2" y1="15.2" x2="17.2" y2="28.6"/>
      <polyline class="st3" points="10.2 12.3 10.2 14.7 13.4 16.2 13.4 13.6"/>
    </g>
    <g id="_x3C_tag_x3E_">
      <path class="st6" d="M22.4,17.2h1.3c1,0,1.8.8,1.8,1.8v5.9c0,.5-.4.9-.9.9h-3.1c-.5,0-.9-.4-.9-.9v-5.9c0-1,.8-1.8,1.8-1.8Z"/>
      <path class="st2" d="M23,17.9c-.2-2.1,1.5-4-.9-4.6"/>
      <path class="st7" d="M22.8,24.6v-.7c-.4,0-.7-.1-.9-.2l.2-.5c.2.1.6.2.9.2s.6-.2.6-.4-.2-.4-.6-.5c-.6-.2-1-.4-1-.9s.3-.8.9-.9v-.7h.5v.7c.4,0,.6,0,.8.2l-.2.5c-.1,0-.4-.2-.8-.2s-.6.2-.6.4.2.3.7.5c.7.2.9.5.9,1s-.3.8-1,.9v.7h-.5Z"/>
      <circle class="st2" cx="23" cy="17.9" r=".3"/>
    </g>
  </g>
</svg>